<?xml version="1.0" encoding="UTF-8" standalone="no"?>
<!DOCTYPE svg PUBLIC "-//W3C//DTD SVG 1.1//EN" "http://www.w3.org/Graphics/SVG/1.1/DTD/svg11.dtd">
<svg width="100%" height="100%" viewBox="0 0 750 750" version="1.1" xmlns="http://www.w3.org/2000/svg" xmlns:xlink="http://www.w3.org/1999/xlink" xml:space="preserve" xmlns:serif="http://www.serif.com/" style="fill-rule:evenodd;clip-rule:evenodd;stroke-linejoin:round;stroke-miterlimit:2;">
    <g transform="matrix(2.93464,0,0,2.19431,-1545.96,-945.142)">
        <path d="M760.378,722.916L739.952,722.916L739.958,722.906L739.942,722.916L699.149,611.19L657.263,611.19L657.263,700.13L657.275,700.13L657.275,722.916L539.836,722.916L543.578,713.009L543.566,713.001L630.96,473.562L634.917,462.168L634.92,462.171L634.92,462.168L666.47,462.168L666.47,462.171L666.474,462.168L759.278,719.874L759.276,719.875L760.378,722.916ZM570.18,700.13L640.053,700.13L640.053,611.19L602.186,611.19L570.18,700.13ZM610.385,588.404L690.829,588.404L654.776,489.66L645.919,489.66L610.385,588.404Z"/>
    </g>
</svg>
