<?xml version="1.0" encoding="UTF-8" standalone="no"?>
<!DOCTYPE svg PUBLIC "-//W3C//DTD SVG 1.1//EN" "http://www.w3.org/Graphics/SVG/1.1/DTD/svg11.dtd">
<svg width="100%" height="100%" viewBox="0 0 76 72" version="1.1" xmlns="http://www.w3.org/2000/svg" xmlns:xlink="http://www.w3.org/1999/xlink" xml:space="preserve" xmlns:serif="http://www.serif.com/" style="fill-rule:evenodd;clip-rule:evenodd;stroke-linejoin:round;stroke-miterlimit:2;">
    <g transform="matrix(1,0,0,1,3.29077e-06,7.11003e-06)">
        <path d="M22.462,46.053L13.692,46.053C13.012,46.054 12.452,46.614 12.452,47.294C12.452,47.296 12.452,47.298 12.452,47.3C12.452,47.302 12.455,47.3 12.455,47.308L12.452,47.308L12.452,53.565L12.455,53.565L12.452,53.57C12.452,54.256 13.004,54.82 13.692,54.82L22.462,54.82L22.462,58.994L11.519,58.994L11.519,58.984C11.518,58.984 11.516,58.984 11.515,58.984C9.741,58.984 8.281,57.524 8.28,55.75L8.28,45.11C8.285,43.338 9.747,41.884 11.519,41.887L22.462,41.887L22.462,46.053Z" style="fill:currentColor;"/>
    </g>
    <g transform="matrix(1,0,0,1,3.29077e-06,7.11003e-06)">
        <path d="M25.628,34.433C25.628,34.434 25.628,34.436 25.628,34.437C25.628,36.236 24.147,37.717 22.348,37.717C22.347,37.717 22.347,37.717 22.346,37.717L8.27,37.717L8.27,33.487L20.137,33.487C20.835,33.487 21.395,32.916 21.395,32.221L21.395,18.237C21.395,17.54 20.835,16.975 20.137,16.975L13.76,16.975C13.07,16.976 12.502,17.544 12.502,18.234C12.502,18.235 12.502,18.236 12.502,18.237L12.502,24.601C12.502,24.603 12.502,24.605 12.502,24.607C12.502,25.297 13.07,25.866 13.76,25.867L18.855,25.867L18.855,30.097L11.552,30.097C11.551,30.097 11.549,30.097 11.548,30.097C9.75,30.097 8.271,28.618 8.271,26.82C8.271,26.819 8.271,26.817 8.271,26.816L8.271,16.024C8.271,16.023 8.271,16.022 8.271,16.021C8.271,14.222 9.752,12.741 11.551,12.741C11.551,12.741 22.346,12.741 22.346,12.741C24.147,12.742 25.628,14.223 25.628,16.024L25.628,34.433Z" style="fill:currentColor;"/>
    </g>
    <g transform="matrix(1,0,0,1,3.29077e-06,7.11003e-06)">
        <path d="M67.102,58.985L62.93,58.985L62.93,46.055C62.93,46.055 59.999,46.055 59.999,46.055C59.318,46.055 58.758,46.615 58.758,47.296C58.758,47.298 58.758,47.299 58.758,47.301L58.758,58.985L54.588,58.985L54.588,46.055L51.655,46.055C50.973,46.056 50.413,46.616 50.413,47.298C50.413,47.299 50.413,47.3 50.413,47.301L50.413,58.996L46.243,58.996L46.243,45.112C46.246,43.34 47.706,41.885 49.478,41.888L67.101,41.888L67.102,58.985Z" style="fill:currentColor;"/>
    </g>
    <g transform="matrix(1,0,0,1,3.29077e-06,7.11003e-06)">
        <path d="M67.112,34.433C67.112,34.434 67.112,34.436 67.112,34.437C67.112,36.236 65.631,37.717 63.832,37.717C63.832,37.717 63.831,37.717 63.831,37.717L49.755,37.717L49.755,33.487L61.622,33.487C62.322,33.487 62.886,32.916 62.886,32.221L62.886,18.237C62.886,18.237 62.886,18.236 62.886,18.236C62.886,17.544 62.317,16.975 61.625,16.975C61.624,16.975 61.623,16.975 61.622,16.975L55.246,16.975C54.556,16.978 53.99,17.547 53.991,18.237L53.991,24.601C53.991,25.3 54.555,25.867 55.246,25.867L60.338,25.867L60.338,30.097L53.038,30.097C53.037,30.097 53.036,30.097 53.035,30.097C51.236,30.097 49.755,28.616 49.755,26.817C49.755,26.817 49.755,16.024 49.755,16.024C49.755,16.023 49.755,16.023 49.755,16.022C49.755,14.222 51.236,12.741 53.036,12.741C53.037,12.741 53.038,12.741 53.039,12.741L63.83,12.741C65.63,12.743 67.11,14.224 67.111,16.024L67.112,34.433Z" style="fill:currentColor;"/>
    </g>
    <g transform="matrix(1,0,0,1,3.29077e-06,7.11003e-06)">
        <path d="M42.13,18.248L42.13,24.601C42.13,24.607 42.13,24.612 42.13,24.618C42.13,25.303 41.567,25.867 40.882,25.868L34.507,25.868C33.816,25.867 33.247,25.298 33.247,24.607C33.247,24.605 33.247,24.603 33.247,24.601L33.247,18.237C33.247,17.54 33.807,16.976 34.507,16.976C34.507,16.976 40.882,16.976 40.882,16.976C41.567,16.976 42.13,17.539 42.13,18.224C42.13,18.228 42.13,18.248 42.13,18.248ZM43.09,12.743L32.295,12.743C30.496,12.744 29.016,14.224 29.016,16.023C29.016,16.024 29.016,16.024 29.016,16.025L29.016,26.817C29.016,26.819 29.016,26.82 29.016,26.822C29.016,28.62 30.495,30.099 32.293,30.099C32.294,30.099 32.294,30.099 32.295,30.099L43.09,30.099C44.889,30.097 46.369,28.616 46.37,26.817L46.37,16.025C46.369,14.226 44.889,12.745 43.09,12.743" style="fill:currentColor;"/>
    </g>
    <g transform="matrix(1,0,0,1,3.29077e-06,7.11003e-06)">
        <path d="M38.734,47.308L38.734,53.565C38.734,53.567 38.734,53.569 38.734,53.571C38.734,54.251 38.176,54.812 37.496,54.815C37.49,54.815 37.488,54.808 37.482,54.808L37.482,54.815L31.226,54.815L31.226,54.808C31.226,54.808 31.219,54.815 31.212,54.815C30.531,54.813 29.972,54.252 29.972,53.571C29.972,53.569 29.972,53.567 29.972,53.565L29.972,47.3C29.972,46.612 30.524,46.053 31.212,46.053L37.496,46.053C38.175,46.054 38.734,46.614 38.734,47.293C38.734,47.295 38.734,47.308 38.734,47.308ZM39.671,41.887L29.036,41.887C27.264,41.884 25.804,43.338 25.8,45.11L25.8,55.75C25.8,57.524 27.259,58.983 29.033,58.983C29.034,58.983 29.035,58.983 29.036,58.983L39.671,58.983C41.444,58.982 42.903,57.523 42.903,55.75L42.903,45.11C42.899,43.34 41.441,41.886 39.671,41.886" style="fill:currentColor;"/>
    </g>
    <g transform="matrix(1,0,0,1,3.29077e-06,7.11003e-06)">
        <path d="M73.783,66.252C73.783,67.327 73.35,68.292 72.646,68.997C71.92,69.725 70.932,70.134 69.903,70.132L5.483,70.132C5.482,70.132 5.48,70.132 5.479,70.132C3.353,70.132 1.603,68.382 1.603,66.256C1.603,66.255 1.603,66.253 1.603,66.252L1.603,5.482C1.602,4.453 2.012,3.465 2.74,2.738C3.467,2.01 4.454,1.601 5.483,1.602L69.903,1.602C70.932,1.601 71.919,2.01 72.646,2.738C73.375,3.464 73.785,4.451 73.783,5.48L73.783,66.252ZM73.778,1.605C72.752,0.576 71.356,-0.002 69.903,0L5.483,0C4.03,-0.002 2.634,0.576 1.608,1.605C0.578,2.631 -0.002,4.027 0,5.481L0,66.251C0,67.764 0.615,69.14 1.608,70.129C2.634,71.158 4.03,71.737 5.483,71.736L69.903,71.736C71.356,71.737 72.752,71.158 73.778,70.129C74.808,69.102 75.387,67.706 75.386,66.252L75.386,5.482C75.387,4.028 74.808,2.632 73.778,1.605" style="fill:currentColor;fill-rule:nonzero;"/>
    </g>
</svg>
